HIERARCHY
ROOT Hips
{
    OFFSET 0.000000 97.120003 0.000000
    CHANNELS 6 Xposition Yposition Zposition Yrotation Xrotation Zrotation
    JOINT RightUpLeg
    {
        OFFSET -11.000000 -0.000000 0.000000
        CHANNELS 3 Yrotation Xrotation Zrotation
        JOINT RightLeg
        {
            OFFSET 0.000000 -45.062000 0.000000
            CHANNELS 3 Yrotation Xrotation Zrotation
            JOINT RightFoot
            {
                OFFSET 0.000000 -42.057999 0.000000
                CHANNELS 3 Yrotation Xrotation Zrotation
                End Site
                {
                    OFFSET 0.000000 -10.000000 15.120000
                }
            }
        }
    }
    JOINT LeftUpLeg
    {
        OFFSET 11.000000 -0.000000 0.000000
        CHANNELS 3 Yrotation Xrotation Zrotation
        JOINT LeftLeg
        {
            OFFSET 0.000000 -45.062000 0.000000
            CHANNELS 3 Yrotation Xrotation Zrotation
            JOINT LeftFoot
            {
                OFFSET 0.000000 -42.057999 0.000000
                CHANNELS 3 Yrotation Xrotation Zrotation
                End Site
                {
                    OFFSET 0.000000 -10.000000 15.120000
                }
            }
        }
    }
    JOINT Spine
    {
        OFFSET 0.000000 8.120000 0.000000
        CHANNELS 3 Yrotation Xrotation Zrotation
        JOINT Spine1
        {
            OFFSET 0.000000 17.980000 0.000000
            CHANNELS 3 Yrotation Xrotation Zrotation
            JOINT Spine2
            {
                OFFSET 0.000000 12.760000 0.000000
                CHANNELS 3 Yrotation Xrotation Zrotation
                JOINT Neck
                {
                    OFFSET 0.000000 19.139999 0.000000
                    CHANNELS 3 Yrotation Xrotation Zrotation
                    JOINT Neck1
                    {
                        OFFSET 0.000000 4.250000 0.000000
                        CHANNELS 3 Yrotation Xrotation Zrotation
                        JOINT Head
                        {
                            OFFSET 0.000000 4.250000 0.000000
                            CHANNELS 3 Yrotation Xrotation Zrotation
                            End Site
                            {
                                OFFSET 0.000000 19.120001 0.000000
                            }
                        }
                    }
                }
                JOINT RightShoulder
                {
                    OFFSET -2.900000 13.340000 0.000000
                    CHANNELS 3 Yrotation Xrotation Zrotation
                    JOINT RightArm
                    {
                        OFFSET -16.100000 0.000000 0.000000
                        CHANNELS 3 Yrotation Xrotation Zrotation
                        JOINT RightForeArm
                        {
                            OFFSET -28.000000 0.000000 0.000000
                            CHANNELS 3 Yrotation Xrotation Zrotation
                            JOINT RightHand
                            {
                                OFFSET -26.000000 0.000000 0.000000
                                CHANNELS 3 Yrotation Xrotation Zrotation
                                JOINT RightHandThumb1
                                {
                                    OFFSET -1.937000 -0.484000 2.518000
                                    CHANNELS 3 Yrotation Xrotation Zrotation
                                    JOINT RightHandThumb2
                                    {
                                        OFFSET -3.872000 0.000000 0.000000
                                        CHANNELS 3 Yrotation Xrotation Zrotation
                                        JOINT RightHandThumb3
                                        {
                                            OFFSET -2.690000 0.000000 0.000000
                                            CHANNELS 3 Yrotation Xrotation Zrotation
                                            End Site
                                            {
                                                OFFSET -2.537000 0.000000 0.000000
                                            }
                                        }
                                    }
                                }
                                JOINT RightInHandIndex
                                {
                                    OFFSET -3.389000 0.535000 2.080000
                                    CHANNELS 3 Yrotation Xrotation Zrotation
                                    JOINT RightHandIndex1
                                    {
                                        OFFSET -5.485000 -0.096000 1.051000
                                        CHANNELS 3 Yrotation Xrotation Zrotation
                                        JOINT RightHandIndex2
                                        {
                                            OFFSET -3.806000 0.000000 0.000000
                                            CHANNELS 3 Yrotation Xrotation Zrotation
                                            JOINT RightHandIndex3
                                            {
                                                OFFSET -2.158000 0.000000 0.000000
                                                CHANNELS 3 Yrotation Xrotation Zrotation
                                                End Site
                                                {
                                                    OFFSET -1.898000 0.000000 0.000000
                                                }
                                            }
                                        }
                                    }
                                }
                                JOINT RightInHandMiddle
                                {
                                    OFFSET -3.556000 0.544000 0.796000
                                    CHANNELS 3 Yrotation Xrotation Zrotation
                                    JOINT RightHandMiddle1
                                    {
                                        OFFSET -5.441000 -0.088000 0.330000
                                        CHANNELS 3 Yrotation Xrotation Zrotation
                                        JOINT RightHandMiddle2
                                        {
                                            OFFSET -4.153000 0.000000 0.000000
                                            CHANNELS 3 Yrotation Xrotation Zrotation
                                            JOINT RightHandMiddle3
                                            {
                                                OFFSET -2.603000 0.000000 0.000000
                                                CHANNELS 3 Yrotation Xrotation Zrotation
                                                End Site
                                                {
                                                    OFFSET -2.076000 0.000000 0.000000
                                                }
                                            }
                                        }
                                    }
                                }
                                JOINT RightInHandRing
                                {
                                    OFFSET -3.539000 0.566000 -0.136000
                                    CHANNELS 3 Yrotation Xrotation Zrotation
                                    JOINT RightHandRing1
                                    {
                                        OFFSET -4.873000 -0.023000 -0.504000
                                        CHANNELS 3 Yrotation Xrotation Zrotation
                                        JOINT RightHandRing2
                                        {
                                            OFFSET -3.619000 0.000000 0.000000
                                            CHANNELS 3 Yrotation Xrotation Zrotation
                                            JOINT RightHandRing3
                                            {
                                                OFFSET -2.511000 0.000000 0.000000
                                                CHANNELS 3 Yrotation Xrotation Zrotation
                                                End Site
                                                {
                                                    OFFSET -1.952000 0.000000 0.000000
                                                }
                                            }
                                        }
                                    }
                                }
                                JOINT RightInHandPinky
                                {
                                    OFFSET -3.324000 0.494000 -1.264000
                                    CHANNELS 3 Yrotation Xrotation Zrotation
                                    JOINT RightHandPinky1
                                    {
                                        OFFSET -4.354000 -0.023000 -1.147000
                                        CHANNELS 3 Yrotation Xrotation Zrotation
                                        JOINT RightHandPinky2
                                        {
                                            OFFSET -2.898000 0.000000 0.000000
                                            CHANNELS 3 Yrotation Xrotation Zrotation
                                            JOINT RightHandPinky3
                                            {
                                                OFFSET -1.831000 0.000000 0.000000
                                                CHANNELS 3 Yrotation Xrotation Zrotation
                                                End Site
                                                {
                                                    OFFSET -1.730000 0.000000 0.000000
                                                }
                                            }
                                        }
                                    }
                                }
                            }
                        }
                    }
                }
                JOINT LeftShoulder
                {
                    OFFSET 2.900000 13.340000 0.000000
                    CHANNELS 3 Yrotation Xrotation Zrotation
                    JOINT LeftArm
                    {
                        OFFSET 16.100000 0.000000 0.000000
                        CHANNELS 3 Yrotation Xrotation Zrotation
                        JOINT LeftForeArm
                        {
                            OFFSET 28.000000 0.000000 0.000000
                            CHANNELS 3 Yrotation Xrotation Zrotation
                            JOINT LeftHand
                            {
                                OFFSET 26.000000 0.000000 0.000000
                                CHANNELS 3 Yrotation Xrotation Zrotation
                                JOINT LeftHandThumb1
                                {
                                    OFFSET 1.937000 -0.484000 2.518000
                                    CHANNELS 3 Yrotation Xrotation Zrotation
                                    JOINT LeftHandThumb2
                                    {
                                        OFFSET 3.872000 0.000000 0.000000
                                        CHANNELS 3 Yrotation Xrotation Zrotation
                                        JOINT LeftHandThumb3
                                        {
                                            OFFSET 2.690000 0.000000 0.000000
                                            CHANNELS 3 Yrotation Xrotation Zrotation
                                            End Site
                                            {
                                                OFFSET 2.537000 0.000000 0.000000
                                            }
                                        }
                                    }
                                }
                                JOINT LeftInHandIndex
                                {
                                    OFFSET 3.389000 0.535000 2.080000
                                    CHANNELS 3 Yrotation Xrotation Zrotation
                                    JOINT LeftHandIndex1
                                    {
                                        OFFSET 5.485000 -0.096000 1.051000
                                        CHANNELS 3 Yrotation Xrotation Zrotation
                                        JOINT LeftHandIndex2
                                        {
                                            OFFSET 3.806000 0.000000 0.000000
                                            CHANNELS 3 Yrotation Xrotation Zrotation
                                            JOINT LeftHandIndex3
                                            {
                                                OFFSET 2.158000 0.000000 0.000000
                                                CHANNELS 3 Yrotation Xrotation Zrotation
                                                End Site
                                                {
                                                    OFFSET 1.898000 0.000000 0.000000
                                                }
                                            }
                                        }
                                    }
                                }
                                JOINT LeftInHandMiddle
                                {
                                    OFFSET 3.556000 0.544000 0.796000
                                    CHANNELS 3 Yrotation Xrotation Zrotation
                                    JOINT LeftHandMiddle1
                                    {
                                        OFFSET 5.441000 -0.088000 0.330000
                                        CHANNELS 3 Yrotation Xrotation Zrotation
                                        JOINT LeftHandMiddle2
                                        {
                                            OFFSET 4.153000 0.000000 0.000000
                                            CHANNELS 3 Yrotation Xrotation Zrotation
                                            JOINT LeftHandMiddle3
                                            {
                                                OFFSET 2.603000 0.000000 0.000000
                                                CHANNELS 3 Yrotation Xrotation Zrotation
                                                End Site
                                                {
                                                    OFFSET 2.076000 0.000000 0.000000
                                                }
                                            }
                                        }
                                    }
                                }
                                JOINT LeftInHandRing
                                {
                                    OFFSET 3.539000 0.566000 -0.136000
                                    CHANNELS 3 Yrotation Xrotation Zrotation
                                    JOINT LeftHandRing1
                                    {
                                        OFFSET 4.873000 -0.023000 -0.504000
                                        CHANNELS 3 Yrotation Xrotation Zrotation
                                        JOINT LeftHandRing2
                                        {
                                            OFFSET 3.619000 0.000000 0.000000
                                            CHANNELS 3 Yrotation Xrotation Zrotation
                                            JOINT LeftHandRing3
                                            {
                                                OFFSET 2.511000 0.000000 0.000000
                                                CHANNELS 3 Yrotation Xrotation Zrotation
                                                End Site
                                                {
                                                    OFFSET 1.952000 0.000000 0.000000
                                                }
                                            }
                                        }
                                    }
                                }
                                JOINT LeftInHandPinky
                                {
                                    OFFSET 3.324000 0.494000 -1.264000
                                    CHANNELS 3 Yrotation Xrotation Zrotation
                                    JOINT LeftHandPinky1
                                    {
                                        OFFSET 4.354000 -0.023000 -1.147000
                                        CHANNELS 3 Yrotation Xrotation Zrotation
                                        JOINT LeftHandPinky2
                                        {
                                            OFFSET 2.898000 0.000000 0.000000
                                            CHANNELS 3 Yrotation Xrotation Zrotation
                                            JOINT LeftHandPinky3
                                            {
                                                OFFSET 1.831000 0.000000 0.000000
                                                CHANNELS 3 Yrotation Xrotation Zrotation
                                                End Site
                                                {
                                                    OFFSET 1.730000 0.000000 0.000000
                                                }
                                            }
                                        }
                                    }
                                }
                            }
                        }
                    }
                }
            }
        }
    }
}
MOTION
Frames: 4
Frame Time: 0.011111
0.000000 97.119995 0.000000 0.000000 0.000000 0.000000 0.000000 0.000000 0.000000 0.000000 0.000000 0.000000 0.000000 0.000000 0.000000 0.000000 0.000000 0.000000 0.000000 0.000000 0.000000 0.000000 0.000000 0.000000 0.000000 0.000000 0.000000 0.000000 0.000000 0.000000 0.000000 0.000000 0.000000 0.000000 0.000000 0.000000 0.000000 0.000000 0.000000 0.000000 0.000000 0.000000 0.000000 0.000000 0.000000 0.000000 0.000000 0.000000 0.000000 0.000000 0.000000 0.000000 0.000000 0.000000 0.000000 0.000000 0.000000 0.000000 0.000000 0.000000 0.000000 0.000000 0.000000 0.000000 0.000000 0.000000 0.000000 0.000000 0.000000 0.000000 0.000000 0.000000 0.000000 0.000000 0.000000 0.000000 0.000000 0.000000 0.000000 0.000000 0.000000 0.000000 0.000000 0.000000 0.000000 0.000000 0.000000 0.000000 0.000000 0.000000 0.000000 0.000000 0.000000 0.000000 0.000000 0.000000 0.000000 0.000000 0.000000 0.000000 0.000000 0.000000 0.000000 0.000000 0.000000 0.000000 0.000000 0.000000 0.000000 0.000000 0.000000 0.000000 0.000000 0.000000 0.000000 0.000000 0.000000 0.000000 0.000000 0.000000 0.000000 0.000000 0.000000 0.000000 0.000000 0.000000 0.000000 0.000000 0.000000 0.000000 0.000000 0.000000 0.000000 0.000000 0.000000 0.000000 0.000000 0.000000 0.000000 0.000000 0.000000 0.000000 0.000000 0.000000 0.000000 0.000000 0.000000 0.000000 0.000000 0.000000 0.000000 0.000000 0.000000 0.000000 0.000000 0.000000 0.000000 0.000000 0.000000 0.000000 0.000000 0.000000 0.000000 0.000000 0.000000 0.000000 0.000000 0.000000 0.000000 0.000000 0.000000 0.000000 0.000000 0.000000 0.000000 0.000000 0.000000 0.000000 0.000000 0.000000
-171.343246 97.308350 18.042459 89.016998 -2.882964 0.641599 167.553192 174.518661 178.246552 7.586958 0.552885 -0.946076 176.974701 -178.446899 179.074875 1.496133 4.223151 2.109852 172.662704 178.866638 179.921860 8.041268 -1.777000 -2.537656 179.665878 176.305557 179.760422 179.665894 176.377472 179.615555 178.480713 177.393707 179.405106 0.000003 -3.708117 0.316041 179.999985 -175.673859 -179.672668 179.732239 -176.808456 -179.790009 10.095828 -0.149085 0.445255 17.647442 -4.455745 81.980309 0.207140 -7.750196 0.704718 175.336426 178.954117 174.456497 50.751835 40.583569 10.699950 180.000000 -180.000000 -171.389297 180.000000 180.000000 -174.265259 0.000002 -0.000002 0.000003 14.999991 0.000002 30.039555 0.000004 0.000002 24.577814 180.000000 179.999985 -162.795517 0.000002 -0.000002 0.000003 180.000000 -179.999985 -146.991806 0.000006 -0.000005 33.008202 0.000007 -0.000001 21.983469 0.000002 -0.000002 0.000003 170.000000 179.999985 -149.882980 180.000000 -180.000000 -149.883011 0.000000 -0.000000 20.057928 0.000002 -0.000002 0.000003 160.000000 -179.999985 -161.937683 0.000004 0.000003 27.093460 0.000011 0.000002 18.044252 1.185713 -1.728659 -0.358270 172.523560 -172.069138 96.948822 179.655960 177.521118 -179.618347 8.634636 10.201201 1.222942 127.088020 128.276123 165.290161 0.000001 0.000005 -6.835053 0.000002 0.000005 -4.552129 180.000000 180.000000 -179.999985 165.000000 179.999985 149.742767 180.000000 -179.999985 155.244095 0.000009 0.000007 -17.329130 180.000000 180.000000 -179.999985 0.000002 -0.000001 -32.526539 179.999985 180.000000 147.473450 0.000000 -0.000002 -21.662676 180.000000 180.000000 -179.999985 9.999986 0.000001 -30.897936 180.000000 -179.999985 149.102066 180.000000 180.000000 159.421982 180.000000 180.000000 -179.999985 20.000008 -0.000000 -23.556479 180.000000 -179.999985 144.665298 0.000004 -0.000001 -23.532919
-171.330719 97.271751 18.038906 89.015793 -2.878858 0.641091 167.543121 174.512314 178.243301 7.619686 0.548306 -0.947273 176.954010 -178.440994 179.078491 1.489439 4.224989 2.108151 172.671631 178.858810 179.919907 8.040959 -1.792633 -2.534156 179.666702 176.311188 179.760757 179.665802 176.382996 179.616867 178.479828 177.397644 179.406967 0.000007 -3.698389 0.314840 180.000000 -175.685226 -179.673920 179.751587 -176.816742 -179.791870 10.089544 -0.144265 0.452740 17.643307 -4.445954 81.973251 0.209183 -7.738876 0.706238 175.341904 178.943436 174.455872 50.741165 40.582527 10.700275 180.000000 179.999985 -171.383484 180.000000 180.000000 -174.261398 0.000000 0.000000 -0.000003 15.000008 -0.000004 30.049475 0.000002 -0.000006 24.585934 180.000000 -180.000000 -162.789856 0.000000 0.000000 -0.000003 0.000007 -0.000002 33.011761 180.000000 179.999985 -146.988220 180.000000 180.000000 -158.014175 0.000000 0.000000 -0.000003 170.000000 -179.999985 -149.886124 179.999985 179.999985 -149.886108 0.000003 -0.000002 20.055832 0.000000 0.000000 -0.000003 160.000015 -179.999985 -161.937241 180.000000 -179.999985 -152.905853 180.000000 179.999985 -161.955292 1.184392 -1.716735 -0.358608 172.529068 -172.052612 96.947792 179.666245 177.519684 -179.610718 8.627820 10.216278 1.224498 127.038200 128.280014 165.253357 180.000000 179.999985 173.171707 180.000000 179.999985 175.452362 0.000000 -0.000000 0.000002 165.000015 179.999985 149.754211 180.000000 -179.999985 155.253448 180.000000 -179.999985 162.677399 0.000000 -0.000000 0.000002 0.000005 -0.000000 -32.521908 179.999985 -179.999985 147.478104 180.000000 180.000000 158.340408 0.000000 -0.000000 0.000002 10.000006 0.000000 -30.893782 180.000000 -179.999985 149.106216 0.000003 0.000001 -20.575260 0.000000 -0.000000 0.000002 20.000006 0.000002 -23.562187 180.000000 180.000000 144.656723 0.000000 0.000000 -23.538614
-171.320068 97.261360 18.033684 89.015465 -2.873686 0.640818 167.531204 174.508453 178.241013 7.650036 0.544052 -0.951858 176.934372 -178.431503 179.081207 1.478717 4.220214 2.101575 172.680344 178.842697 179.923538 8.041259 -1.811197 -2.535146 179.667618 176.316650 179.760788 179.665649 176.388306 179.617767 178.479065 177.401459 179.408218 0.000011 -3.683720 0.313120 179.999985 -175.702332 -179.675690 179.787231 -176.829254 -179.794968 10.081639 -0.141342 0.461809 17.642246 -4.435147 81.965515 0.213533 -7.728187 0.711655 175.351288 178.937500 174.452072 50.731941 40.571426 10.693840 180.000000 179.999985 -171.378967 180.000000 -180.000000 -174.258377 0.000002 -0.000002 -0.000000 14.999993 -0.000003 30.051210 0.000004 0.000003 24.587349 180.000000 180.000000 -162.788849 0.000002 -0.000002 -0.000000 0.000008 -0.000004 33.011177 180.000000 -179.999985 -146.988815 0.000004 0.000000 21.985445 0.000002 -0.000002 -0.000000 170.000000 -179.999985 -149.878494 0.000011 -0.000013 30.121479 180.000000 179.999985 -159.939087 0.000002 -0.000002 -0.000000 160.000015 180.000000 -161.934250 180.000000 180.000000 -152.901382 0.000009 -0.000012 18.047689 1.179078 -1.709144 -0.358974 172.540939 -172.037140 96.951569 179.676712 177.522903 -179.613922 8.614756 10.229834 1.221604 126.955086 128.288467 165.189819 180.000000 179.999985 173.181473 0.000001 0.000007 -4.541136 0.000002 0.000005 0.000000 165.000015 -179.999985 149.766357 0.000000 0.000000 -24.736616 180.000000 -179.999985 162.684387 0.000002 0.000005 0.000000 180.000000 179.999985 147.470398 0.000004 -0.000002 -32.529610 0.000007 0.000001 -21.664726 0.000002 0.000005 0.000000 9.999997 -0.000010 -30.894157 179.999985 -179.999985 149.105835 180.000000 -179.999985 159.424484 0.000002 0.000005 0.000000 19.999998 0.000002 -23.575909 179.999985 -179.999985 144.636139 180.000000 -179.999985 156.447662
